<svg aria-hidden="true" xmlns="http://www.w3.org/2000/svg" xmlns:xlink="http://www.w3.org/1999/xlink" class="svg-icon ios-icon platform-icon icon-inline" viewBox="0 0 14 20">
    <path d="M3.726 19.763h6.834c1.503 0 2.509-0.959 2.509-2.398v-14.729c0-1.439-1.005-2.398-2.509-2.398h-6.834c-1.503 0-2.509 0.959-2.509 2.398v14.729c0 1.439 1.005 2.398 2.509 2.398zM3.919 18.278c-0.784 0-1.217-0.415-1.217-1.153v-14.25c0-0.738 0.433-1.153 1.217-1.153h1.181c0.148 0 0.221 0.074 0.221 0.212v0.212c0 0.387 0.258 0.646 0.636 0.646h2.38c0.387 0 0.636-0.258 0.636-0.646v-0.212c0-0.138 0.074-0.212 0.221-0.212h1.181c0.775 0 1.208 0.415 1.208 1.153v14.25c0 0.738-0.433 1.153-1.208 1.153h-6.456zM5.192 17.604h3.92c0.249 0 0.424-0.175 0.424-0.433s-0.175-0.424-0.424-0.424h-3.92c-0.249 0-0.433 0.166-0.433 0.424s0.184 0.433 0.433 0.433z"></path>
</svg>