<svg aria-hidden="true" xmlns="http://www.w3.org/2000/svg" xmlns:xlink="http://www.w3.org/1999/xlink" class="svg-icon ipados-icon platform-icon icon-inline" viewBox="0 0 20 20">
    <path d="M2.663 17.807h14.673c1.781 0 2.663-0.882 2.663-2.629v-10.356c0-1.747-0.882-2.629-2.663-2.629h-14.673c-1.773 0-2.663 0.874-2.663 2.629v10.356c0 1.756 0.891 2.629 2.663 2.629zM2.68 16.442c-0.848 0-1.315-0.45-1.315-1.332v-10.221c0-0.882 0.467-1.332 1.315-1.332h14.64c0.84 0 1.315 0.45 1.315 1.332v10.221c0 0.882-0.475 1.332-1.315 1.332h-14.64zM6.726 15.789h6.556c0.229 0 0.39-0.153 0.39-0.39s-0.161-0.399-0.39-0.399h-6.556c-0.229 0-0.399 0.161-0.399 0.399s0.17 0.39 0.399 0.39z"></path>
</svg>