<svg aria-hidden="true" xmlns="http://www.w3.org/2000/svg" xmlns:xlink="http://www.w3.org/1999/xlink" class="svg-icon macos-icon platform-icon icon-inline" viewBox="0 0 20 20">
    <path d="M1.93 15.474h5.419v1.619h-0.050c-0.369 0-0.68 0.302-0.68 0.68s0.31 0.68 0.68 0.68h5.403c0.369 0 0.671-0.302 0.671-0.68s-0.302-0.68-0.671-0.68h-0.050v-1.619h5.411c1.208 0 1.938-0.73 1.938-1.938v-10.059c0-1.208-0.73-1.93-1.938-1.93h-16.133c-1.2 0-1.93 0.721-1.93 1.93v10.059c0 1.208 0.73 1.938 1.93 1.938zM1.711 11.774c-0.252 0-0.361-0.092-0.361-0.361v-7.911c0-0.378 0.235-0.604 0.604-0.604h16.091c0.369 0 0.604 0.227 0.604 0.604v7.911c0 0.268-0.117 0.361-0.369 0.361h-16.569z"></path>
</svg>