<?xml version="1.0" encoding="UTF-8"?>
<!--Generator: Apple Native CoreSVG 326-->
<!DOCTYPE svg
PUBLIC "-//W3C//DTD SVG 1.1//EN"
       "http://www.w3.org/Graphics/SVG/1.1/DTD/svg11.dtd">
<svg version="1.1" xmlns="http://www.w3.org/2000/svg" xmlns:xlink="http://www.w3.org/1999/xlink" viewBox="0 0 60 59.7949">
 <g>
  <rect height="59.7949" opacity="0" width="60" x="0" y="0"/>
  <path d="M29.8828 59.7656C46.377 59.7656 59.7656 46.377 59.7656 29.8828C59.7656 13.3887 46.377 0 29.8828 0C13.3887 0 0 13.3887 0 29.8828C0 46.377 13.3887 59.7656 29.8828 59.7656ZM29.8828 54.7852C16.1133 54.7852 4.98047 43.6523 4.98047 29.8828C4.98047 16.1133 16.1133 4.98047 29.8828 4.98047C43.6523 4.98047 54.7852 16.1133 54.7852 29.8828C54.7852 43.6523 43.6523 54.7852 29.8828 54.7852Z" fill="black" fill-opacity="0.85"/>
  <path d="M17.6074 44.6484L34.4238 36.4453C35.3613 35.9766 36.0059 35.332 36.4746 34.4238L44.6484 17.6367C45.5859 15.6445 44.1504 14.0918 42.0996 15.1172L25.3418 23.291C24.4336 23.7012 23.8184 24.3164 23.3203 25.3125L15.0879 42.1289C14.1504 44.0625 15.6738 45.5859 17.6074 44.6484ZM29.8828 33.4863C27.8906 33.4863 26.3086 31.875 26.3086 29.9121C26.3086 27.9199 27.8906 26.3086 29.8828 26.3086C31.875 26.3086 33.4863 27.9199 33.4863 29.9121C33.4863 31.875 31.875 33.4863 29.8828 33.4863Z" fill="black" fill-opacity="0.85"/>
 </g>
</svg>
