<svg aria-hidden="true" xmlns="http://www.w3.org/2000/svg" xmlns:xlink="http://www.w3.org/1999/xlink" class="svg-icon tvos-icon platform-icon icon-inline" viewBox="0 0 20 20">
    <path d="M2.056 15.28h15.888c1.352 0 2.056-0.696 2.056-2.056v-9.168c0-1.352-0.704-2.048-2.056-2.048h-15.888c-1.352 0-2.056 0.696-2.056 2.048v9.168c0 1.36 0.704 2.056 2.056 2.056zM2.080 13.992c-0.528 0-0.792-0.264-0.792-0.784v-9.128c0-0.528 0.264-0.784 0.792-0.784h15.84c0.528 0 0.792 0.256 0.792 0.784v9.128c0 0.52-0.264 0.784-0.792 0.784h-15.84zM5.976 17.992h8.048c0.352 0 0.648-0.288 0.648-0.648s-0.296-0.648-0.648-0.648h-8.048c-0.352 0-0.648 0.288-0.648 0.648s0.296 0.648 0.648 0.648z"></path>
</svg>