<svg aria-hidden="true" xmlns="http://www.w3.org/2000/svg" xmlns:xlink="http://www.w3.org/1999/xlink" class="svg-icon visionos-icon platform-icon icon-inline" viewBox="0 0 14 8">
    <path d="m7,0c.965,0,1.756.027,2.493.085.777.067,1.319.15,1.85.309.7.21,1.274.538,1.722,1.024l-.307.283.309-.281c.76.835,1.078,2.11.873,3.419l-.006.04c-.114.699-.384,1.342-.785,1.857-.444.571-1.039.967-1.713,1.142-.302.081-.61.122-.92.122-.756,0-1.502-.243-2.166-.705l.008.005-.004-.003c-.01-.006-.019-.012-.028-.018l-.019-.012-.019-.012c-.078-.052-.16-.11-.305-.216-.513-.373-.757-.505-.982-.505s-.468.132-.982.505c-.149.108-.232.167-.312.22l-.019.013c-.016.01-.032.021-.049.032l.006-.004-.023.016c-.646.441-1.368.676-2.1.683h-.035c-.31,0-.619-.041-.917-.121-.677-.175-1.272-.572-1.716-1.143-.401-.516-.672-1.158-.785-1.856-.219-1.324.098-2.616.868-3.461.448-.486,1.022-.814,1.722-1.024.53-.159,1.072-.242,1.852-.31.734-.058,1.526-.084,2.49-.084Zm.058,1h-.117c-.892.001-1.624.026-2.297.077-.705.059-1.185.131-1.635.262-.551.161-.984.402-1.312.748-.57.609-.817,1.589-.642,2.618.089.535.299,1.02.604,1.402.323.405.749.681,1.237.804.226.059.455.089.685.089.567,0,1.132-.179,1.645-.526l.006-.004.006-.004s.005-.003.008-.005l.016-.01c.008-.005.016-.01.024-.015l.016-.01c.064-.042.137-.093.266-.184.296-.209.437-.302.625-.401.277-.146.539-.227.805-.227s.527.081.805.227c.188.099.33.192.625.401.157.111.231.162.307.21l.015.01.014.009.006.004c.513.347,1.078.526,1.645.526.23,0,.46-.03.689-.09.485-.122.911-.398,1.234-.803.305-.381.515-.866.604-1.402.175-1.028-.072-2.008-.643-2.618l-.018-.018c-.327-.336-.754-.571-1.294-.729-.45-.132-.931-.203-1.633-.262-.691-.053-1.44-.078-2.358-.078h.058Z"></path>
</svg>