<svg aria-hidden="true" xmlns="http://www.w3.org/2000/svg" xmlns:xlink="http://www.w3.org/1999/xlink" class="svg-icon watchos-icon platform-icon icon-inline" viewBox="0 0 14 20">
    <path d="M0.456 13.731c0 1.43 0.563 2.481 1.605 3.053 0.507 0.267 0.802 0.609 0.987 1.227l0.295 0.987c0.175 0.59 0.59 0.876 1.208 0.876h4.261c0.636 0 1.024-0.277 1.199-0.876l0.304-0.987c0.184-0.618 0.48-0.959 0.987-1.227 1.042-0.572 1.605-1.623 1.605-3.053v-4.381h0.129c0.48 0 0.793-0.323 0.793-0.849v-1.245c0-0.526-0.314-0.849-0.793-0.849h-0.129v-0.138c0-1.43-0.563-2.472-1.605-3.053-0.507-0.267-0.802-0.609-0.987-1.217l-0.304-0.996c-0.157-0.581-0.572-0.876-1.199-0.876h-4.261c-0.618 0-1.033 0.286-1.208 0.876l-0.295 0.996c-0.175 0.599-0.47 0.959-0.987 1.217-1.033 0.553-1.605 1.605-1.605 3.053v7.461zM1.803 13.537v-7.065c0-1.374 0.802-2.204 2.149-2.204h5.46c1.347 0 2.149 0.83 2.149 2.204v7.065c0 1.365-0.802 2.195-2.149 2.195h-5.46c-1.347 0-2.149-0.83-2.149-2.195z"></path>
</svg>